<svg viewBox="0 0 24 24" shape-rendering="crispEdges" xmlns="http://www.w3.org/2000/svg"><g id="cat"><rect x="7" y="2" width="1" height="2" fill="#60a5fa"/><rect x="16" y="2" width="1" height="2" fill="#60a5fa"/><rect x="21" y="11" width="1" height="1" fill="#60a5fa"/><rect x="6" y="3" width="1" height="3" fill="#2d3748"/><rect x="8" y="3" width="1" height="3" fill="#2d3748"/><rect x="15" y="3" width="1" height="3" fill="#2d3748"/><rect x="17" y="3" width="1" height="3" fill="#2d3748"/><rect x="7" y="4" width="1" height="2" fill="#2d3748"/><rect x="16" y="4" width="1" height="2" fill="#2d3748"/><rect x="7" y="20" width="3" height="3" fill="#2d3748"/><rect x="14" y="20" width="3" height="3" fill="#2d3748"/><rect x="5" y="6" width="14" height="1" fill="#4a5568"/><rect x="5" y="7" width="1" height="7" fill="#4a5568"/><rect x="18" y="7" width="1" height="7" fill="#4a5568"/><rect x="20" y="12" width="2" height="2" fill="#4a5568"/><rect x="6" y="13" width="12" height="1" fill="#4a5568"/><rect x="7" y="14" width="10" height="1" fill="#4a5568"/><rect x="19" y="14" width="2" height="2" fill="#4a5568"/><rect x="7" y="15" width="1" height="5" fill="#4a5568"/><rect x="16" y="15" width="1" height="5" fill="#4a5568"/><rect x="17" y="16" width="2" height="2" fill="#4a5568"/><rect x="8" y="19" width="8" height="1" fill="#4a5568"/><rect x="6" y="7" width="12" height="2" fill="#718096"/><rect x="6" y="9" width="2" height="4" fill="#718096"/><rect x="10" y="9" width="4" height="2" fill="#718096"/><rect x="16" y="9" width="2" height="4" fill="#718096"/><rect x="8" y="11" width="3" height="2" fill="#718096"/><rect x="13" y="11" width="3" height="2" fill="#718096"/><rect x="11" y="12" width="2" height="1" fill="#718096"/><rect x="8" y="15" width="8" height="1" fill="#718096"/><rect x="8" y="16" width="3" height="3" fill="#718096"/><rect x="13" y="16" width="3" height="3" fill="#718096"/><rect x="11" y="18" width="2" height="1" fill="#718096"/><rect x="2" y="9" width="3" height="1" fill="#94a3b8"/><rect x="19" y="9" width="3" height="1" fill="#94a3b8"/><rect x="3" y="11" width="2" height="1" fill="#94a3b8"/><rect x="19" y="11" width="2" height="1" fill="#94a3b8"/><rect x="8" y="9" width="2" height="2" fill="#0ff"/><rect x="14" y="9" width="2" height="2" fill="#0ff"/><rect x="11" y="11" width="2" height="1" fill="#1a202c"/><rect x="11" y="16" width="2" height="2" fill="#3b82f6"/></g></svg>