<svg viewBox="0 0 24 24" shape-rendering="crispEdges" xmlns="http://www.w3.org/2000/svg"><g id="cat"><rect x="7" y="3" width="2" height="1" fill="#e2d7c2"/><rect x="15" y="3" width="2" height="1" fill="#e2d7c2"/><rect x="6" y="4" width="1" height="3" fill="#e2d7c2"/><rect x="8" y="4" width="1" height="1" fill="#e2d7c2"/><rect x="15" y="4" width="1" height="1" fill="#e2d7c2"/><rect x="17" y="4" width="1" height="3" fill="#e2d7c2"/><rect x="7" y="6" width="10" height="1" fill="#e2d7c2"/><rect x="8" y="7" width="8" height="1" fill="#e2d7c2"/><rect x="8" y="8" width="1" height="2" fill="#e2d7c2"/><rect x="11" y="8" width="2" height="1" fill="#e2d7c2"/><rect x="15" y="8" width="1" height="2" fill="#e2d7c2"/><rect x="9" y="9" width="1" height="2" fill="#e2d7c2"/><rect x="14" y="9" width="1" height="2" fill="#e2d7c2"/><rect x="10" y="10" width="1" height="12" fill="#e2d7c2"/><rect x="13" y="10" width="1" height="12" fill="#e2d7c2"/><rect x="21" y="11" width="1" height="1" fill="#e2d7c2"/><rect x="11" y="12" width="2" height="7" fill="#e2d7c2"/><rect x="20" y="12" width="1" height="2" fill="#e2d7c2"/><rect x="9" y="14" width="1" height="6" fill="#e2d7c2"/><rect x="14" y="14" width="1" height="5" fill="#e2d7c2"/><rect x="19" y="14" width="1" height="2" fill="#e2d7c2"/><rect x="8" y="15" width="1" height="3" fill="#e2d7c2"/><rect x="15" y="15" width="1" height="3" fill="#e2d7c2"/><rect x="18" y="16" width="1" height="1" fill="#e2d7c2"/><rect x="16" y="17" width="2" height="1" fill="#e2d7c2"/><rect x="12" y="19" width="1" height="1" fill="#e2d7c2"/><rect x="7" y="4" width="1" height="2" fill="#b8af9d"/><rect x="16" y="4" width="1" height="2" fill="#b8af9d"/><rect x="11" y="9" width="2" height="1" fill="#b8af9d"/><rect x="9" y="8" width="1" height="1" fill="#0"/><rect x="14" y="8" width="1" height="1" fill="#0"/><rect x="10" y="9" width="1" height="1" fill="#0"/><rect x="13" y="9" width="1" height="1" fill="#0"/><rect x="10" y="8" width="1" height="1" fill="#FFF"/><rect x="13" y="8" width="1" height="1" fill="#FFF"/><rect x="11" y="10" width="2" height="1" fill="#333"/><rect x="11" y="11" width="2" height="1" fill="#7f6739"/><rect x="8" y="18" width="1" height="2" fill="#d0c7b3"/><rect x="15" y="18" width="1" height="2" fill="#d0c7b3"/><rect x="11" y="19" width="1" height="3" fill="#d0c7b3"/><rect x="14" y="19" width="1" height="3" fill="#d0c7b3"/><rect x="9" y="20" width="1" height="2" fill="#d0c7b3"/><rect x="12" y="20" width="1" height="1" fill="#d0c7b3"/><rect x="15" y="20" width="1" height="1" fill="#c4bdb0"/><rect x="12" y="21" width="1" height="1" fill="#c4bdb0"/><rect x="9" y="22" width="2" height="1" fill="#918a7e"/><rect x="12" y="22" width="3" height="1" fill="#918a7e"/><rect x="11" y="22" width="1" height="1" fill="#a7a095"/></g></svg>