<svg width="384" height="384" viewBox="0 0 24 24" xmlns="http://www.w3.org/2000/svg" shape-rendering="crispEdges"><rect x="6" y="17" width="3" height="1" fill="#305fab"/><rect x="5" y="18" width="1" height="2" fill="#305fab"/><rect x="7" y="18" width="1" height="2" fill="#305fab"/><rect x="9" y="18" width="1" height="2" fill="#305fab"/><rect x="3" y="19" width="2" height="1" fill="#305fab"/><rect x="6" y="19" width="1" height="1" fill="#305fab"/><rect x="8" y="19" width="1" height="1" fill="#305fab"/><rect x="2" y="18" width="1" height="4" fill="#FFF"/><rect x="4" y="18" width="1" height="1" fill="#FFF"/><rect x="1" y="19" width="1" height="2" fill="#FFF"/><rect x="10" y="19" width="1" height="2" fill="#FFF"/><rect x="4" y="20" width="1" height="2" fill="#FFF"/><rect x="9" y="20" width="1" height="2" fill="#FFF"/><rect x="3" y="21" width="1" height="1" fill="#FFF"/><rect x="5" y="21" width="4" height="1" fill="#FFF"/><rect x="3" y="18" width="1" height="1" fill="#4472bb"/><rect x="6" y="18" width="1" height="1" fill="#829dc9"/><rect x="8" y="18" width="1" height="1" fill="#000"/><rect x="3" y="20" width="1" height="1" fill="#6d87b0"/><rect x="5" y="20" width="4" height="1" fill="#6d87b0"/><rect x="1" y="21" width="1" height="1" fill="#ecf0f3"/><rect x="2" y="22" width="4" height="1" fill="#ecf0f3"/><rect x="10" y="21" width="1" height="1" fill="#e6e6e6"/><rect x="6" y="22" width="4" height="1" fill="#e6e6e6"/></svg>