<svg viewBox="0 0 24 24" shape-rendering="crispEdges" xmlns="http://www.w3.org/2000/svg"><g id="acc"><rect x="5" y="16" width="1" height="3" fill="#c9b054"/><rect x="13" y="18" width="1" height="5" fill="#c9b054"/><rect x="4" y="19" width="1" height="2" fill="#c9b054"/><rect x="14" y="20" width="1" height="3" fill="#c9b054"/><rect x="15" y="22" width="5" height="1" fill="#c9b054"/><rect x="6" y="16" width="7" height="2" fill="#e2c55a"/><rect x="14" y="16" width="6" height="1" fill="#e2c55a"/><rect x="16" y="17" width="4" height="2" fill="#e2c55a"/><rect x="6" y="18" width="2" height="5" fill="#e2c55a"/><rect x="10" y="18" width="3" height="5" fill="#e2c55a"/><rect x="20" y="18" width="1" height="3" fill="#e2c55a"/><rect x="8" y="19" width="2" height="4" fill="#e2c55a"/><rect x="17" y="19" width="3" height="2" fill="#e2c55a"/><rect x="21" y="20" width="1" height="1" fill="#e2c55a"/><rect x="13" y="16" width="1" height="1" fill="#ead485"/><rect x="14" y="17" width="2" height="1" fill="#ead485"/><rect x="15" y="18" width="1" height="2" fill="#ead485"/><rect x="16" y="19" width="1" height="2" fill="#ead485"/><rect x="13" y="17" width="1" height="1" fill="#b7a04e"/><rect x="14" y="18" width="1" height="2" fill="#b7a04e"/><rect x="15" y="20" width="1" height="2" fill="#b7a04e"/><rect x="16" y="21" width="4" height="1" fill="#b7a04e"/><rect x="8" y="18" width="2" height="1" fill="#ab9649"/><rect x="5" y="19" width="1" height="2" fill="#ab9649"/></g></svg>