<svg viewBox="0 0 24 24" shape-rendering="crispEdges" xmlns="http://www.w3.org/2000/svg"><g id="acc"><rect x="7" y="7" width="7" height="1" fill="#d1cccc"/><rect x="6" y="8" width="1" height="3" fill="#d1cccc"/><rect x="7" y="11" width="1" height="1" fill="#d1cccc"/><rect x="8" y="12" width="1" height="1" fill="#d1cccc"/><rect x="11" y="12" width="2" height="1" fill="#d1cccc"/><rect x="10" y="13" width="1" height="3" fill="#d1cccc"/><rect x="9" y="14" width="1" height="3" fill="#d1cccc"/><rect x="10" y="17" width="1" height="1" fill="#d1cccc"/><rect x="14" y="7" width="3" height="1" fill="#b7b4b4"/><rect x="7" y="8" width="1" height="1" fill="#b7b4b4"/><rect x="16" y="8" width="2" height="1" fill="#b7b4b4"/><rect x="17" y="9" width="1" height="2" fill="#b7b4b4"/><rect x="11" y="11" width="2" height="1" fill="#b7b4b4"/><rect x="16" y="11" width="1" height="1" fill="#b7b4b4"/><rect x="9" y="12" width="2" height="1" fill="#b7b4b4"/><rect x="13" y="12" width="3" height="1" fill="#b7b4b4"/><rect x="11" y="13" width="1" height="2" fill="#b7b4b4"/><rect x="12" y="14" width="1" height="1" fill="#b7b4b4"/><rect x="13" y="17" width="1" height="1" fill="#b7b4b4"/><rect x="8" y="8" width="2" height="2" fill="#058a4c"/><rect x="12" y="8" width="3" height="3" fill="#058a4c"/><rect x="7" y="9" width="1" height="2" fill="#058a4c"/><rect x="15" y="9" width="1" height="1" fill="#058a4c"/><rect x="8" y="10" width="1" height="2" fill="#058a4c"/><rect x="11" y="10" width="1" height="1" fill="#058a4c"/><rect x="13" y="11" width="1" height="1" fill="#058a4c"/><rect x="10" y="8" width="2" height="2" fill="#34b277"/><rect x="9" y="10" width="2" height="2" fill="#34b277"/><rect x="15" y="8" width="1" height="1" fill="#035e33"/><rect x="16" y="9" width="1" height="2" fill="#035e33"/><rect x="15" y="10" width="1" height="2" fill="#035e33"/><rect x="14" y="11" width="1" height="1" fill="#035e33"/><rect x="12" y="13" width="2" height="1" fill="#959393"/><rect x="13" y="14" width="1" height="2" fill="#959393"/><rect x="14" y="14" width="1" height="3" fill="#737373"/><rect x="11" y="15" width="2" height="3" fill="#737373"/><rect x="10" y="16" width="1" height="1" fill="#737373"/><rect x="13" y="16" width="1" height="1" fill="#737373"/></g></svg>