<svg viewBox="0 0 24 24" shape-rendering="crispEdges" xmlns="http://www.w3.org/2000/svg"><g id="acc"><rect x="7" y="14" width="3" height="5" fill="#031149"/><rect x="14" y="14" width="3" height="2" fill="#031149"/><rect x="6" y="15" width="1" height="5" fill="#031149"/><rect x="10" y="15" width="1" height="3" fill="#031149"/><rect x="13" y="15" width="1" height="3" fill="#031149"/><rect x="17" y="15" width="1" height="5" fill="#031149"/><rect x="11" y="16" width="2" height="2" fill="#031149"/><rect x="15" y="16" width="2" height="4" fill="#031149"/><rect x="14" y="17" width="1" height="2" fill="#031149"/><rect x="7" y="19" width="2" height="1" fill="#031149"/><rect x="10" y="14" width="1" height="1" fill="#FFF"/><rect x="13" y="14" width="1" height="1" fill="#FFF"/><rect x="11" y="15" width="2" height="1" fill="#FFF"/><rect x="14" y="16" width="1" height="1" fill="#FF0"/><rect x="10" y="18" width="1" height="4" fill="#363535"/><rect x="13" y="18" width="1" height="4" fill="#363535"/><rect x="9" y="19" width="1" height="3" fill="#363535"/><rect x="11" y="19" width="2" height="2" fill="#363535"/><rect x="14" y="19" width="1" height="3" fill="#363535"/><rect x="7" y="20" width="2" height="2" fill="#363535"/><rect x="15" y="20" width="2" height="2" fill="#363535"/><rect x="7" y="22" width="1" height="1" fill="#363535"/><rect x="16" y="22" width="1" height="1" fill="#363535"/><rect x="11" y="18" width="2" height="1" fill="#707070"/><rect x="11" y="21" width="1" height="2" fill="#231505"/><rect x="12" y="22" width="1" height="1" fill="#231505"/><rect x="12" y="21" width="1" height="1" fill="#0"/><rect x="8" y="22" width="3" height="1" fill="#412301"/><rect x="13" y="22" width="3" height="1" fill="#412301"/></g></svg>