<svg width="384" height="384" viewBox="0 0 24 24" xmlns="http://www.w3.org/2000/svg" shape-rendering="crispEdges"><rect x="16" y="2" width="2" height="1" fill="#FF0"/><rect x="16" y="3" width="1" height="1" fill="#FF0"/><rect x="18" y="3" width="1" height="1" fill="#FF0"/><rect x="15" y="4" width="1" height="1" fill="#FF0"/><rect x="19" y="4" width="1" height="1" fill="#FF0"/><rect x="14" y="5" width="1" height="2" fill="#FF0"/><rect x="15" y="6" width="1" height="1" fill="#FF0"/><rect x="16" y="7" width="1" height="1" fill="#FF0"/><rect x="17" y="3" width="1" height="1" fill="#e5e52a"/><rect x="20" y="4" width="1" height="2" fill="#e5e52a"/><rect x="15" y="5" width="1" height="1" fill="#e5e52a"/><rect x="19" y="6" width="1" height="1" fill="#e5e52a"/><rect x="18" y="7" width="1" height="2" fill="#e5e52a"/><rect x="17" y="8" width="1" height="1" fill="#e5e52a"/><rect x="16" y="4" width="3" height="1" fill="#c28419"/><rect x="16" y="5" width="2" height="1" fill="#c28419"/><rect x="16" y="6" width="1" height="1" fill="#c28419"/><rect x="18" y="5" width="1" height="2" fill="#99722e"/><rect x="17" y="6" width="1" height="1" fill="#99722e"/><rect x="19" y="5" width="1" height="1" fill="#d8d82c"/><rect x="17" y="7" width="1" height="1" fill="#d8d82c"/></svg>