<svg viewBox="0 0 24 24" shape-rendering="crispEdges" xmlns="http://www.w3.org/2000/svg"><g id="fg"><rect x="5" y="18" width="2" height="1" fill="#c9840d"/><rect x="8" y="18" width="2" height="3" fill="#c9840d"/><rect x="4" y="19" width="1" height="3" fill="#c9840d"/><rect x="6" y="19" width="2" height="1" fill="#c9840d"/><rect x="10" y="19" width="1" height="1" fill="#c9840d"/><rect x="5" y="20" width="1" height="3" fill="#c9840d"/><rect x="7" y="20" width="1" height="1" fill="#c9840d"/><rect x="6" y="21" width="1" height="1" fill="#c9840d"/><rect x="8" y="21" width="1" height="1" fill="#c9840d"/><rect x="3" y="19" width="1" height="2" fill="#f0f0f0"/><rect x="11" y="19" width="1" height="2" fill="#f0f0f0"/><rect x="5" y="19" width="1" height="1" fill="#dfa643"/><rect x="6" y="20" width="1" height="1" fill="#dfa643"/><rect x="10" y="20" width="1" height="1" fill="#d6d6d6"/><rect x="3" y="21" width="1" height="1" fill="#d6d6d6"/><rect x="11" y="21" width="1" height="1" fill="#d6d6d6"/><rect x="7" y="21" width="1" height="1" fill="#a76e0c"/><rect x="9" y="21" width="2" height="1" fill="#a76e0c"/><rect x="6" y="22" width="1" height="1" fill="#a76e0c"/><rect x="8" y="22" width="2" height="1" fill="#a76e0c"/></g></svg>