<svg width="384" height="384" viewBox="0 0 24 24" xmlns="http://www.w3.org/2000/svg" shape-rendering="crispEdges"><rect x="2" y="17" width="1" height="1" fill="#969696"/><rect x="1" y="18" width="1" height="2" fill="#969696"/><rect x="4" y="19" width="1" height="1" fill="#969696"/><rect x="5" y="20" width="1" height="1" fill="#969696"/><rect x="6" y="17" width="2" height="1" fill="#bfbaba"/><rect x="5" y="18" width="1" height="2" fill="#bfbaba"/><rect x="3" y="19" width="1" height="3" fill="#bfbaba"/><rect x="7" y="19" width="3" height="1" fill="#bfbaba"/><rect x="4" y="20" width="1" height="2" fill="#bfbaba"/><rect x="6" y="20" width="2" height="1" fill="#bfbaba"/><rect x="9" y="20" width="1" height="2" fill="#bfbaba"/><rect x="5" y="21" width="1" height="1" fill="#bfbaba"/><rect x="7" y="21" width="2" height="1" fill="#bfbaba"/><rect x="10" y="21" width="1" height="1" fill="#bfbaba"/><rect x="6" y="18" width="2" height="1" fill="#b0abab"/><rect x="6" y="19" width="1" height="1" fill="#b0abab"/><rect x="2" y="20" width="1" height="2" fill="#b0abab"/><rect x="6" y="21" width="1" height="1" fill="#b0abab"/><rect x="3" y="22" width="3" height="1" fill="#b0abab"/><rect x="7" y="22" width="2" height="1" fill="#b0abab"/><rect x="8" y="20" width="1" height="1" fill="#4e4b4b"/><rect x="10" y="20" width="1" height="1" fill="#d9c9c9"/></svg>