<svg width="384" height="384" viewBox="0 0 24 24" xmlns="http://www.w3.org/2000/svg" shape-rendering="crispEdges"><rect x="6" y="3" width="3" height="1" fill="#393b47"/><rect x="15" y="3" width="3" height="1" fill="#393b47"/><rect x="6" y="4" width="1" height="10" fill="#393b47"/><rect x="8" y="4" width="1" height="4" fill="#393b47"/><rect x="15" y="4" width="1" height="4" fill="#393b47"/><rect x="17" y="4" width="1" height="10" fill="#393b47"/><rect x="7" y="5" width="1" height="17" fill="#393b47"/><rect x="16" y="5" width="1" height="17" fill="#393b47"/><rect x="5" y="6" width="1" height="3" fill="#393b47"/><rect x="9" y="6" width="6" height="2" fill="#393b47"/><rect x="18" y="6" width="1" height="3" fill="#393b47"/><rect x="10" y="8" width="4" height="2" fill="#393b47"/><rect x="5" y="10" width="1" height="1" fill="#393b47"/><rect x="8" y="10" width="3" height="1" fill="#393b47"/><rect x="13" y="10" width="3" height="1" fill="#393b47"/><rect x="18" y="10" width="1" height="1" fill="#393b47"/><rect x="8" y="11" width="2" height="11" fill="#393b47"/><rect x="11" y="11" width="2" height="1" fill="#393b47"/><rect x="14" y="11" width="2" height="11" fill="#393b47"/><rect x="21" y="11" width="1" height="2" fill="#393b47"/><rect x="5" y="12" width="1" height="2" fill="#393b47"/><rect x="10" y="12" width="1" height="7" fill="#393b47"/><rect x="13" y="12" width="1" height="7" fill="#393b47"/><rect x="18" y="12" width="1" height="2" fill="#393b47"/><rect x="20" y="12" width="1" height="3" fill="#393b47"/><rect x="11" y="13" width="2" height="6" fill="#393b47"/><rect x="19" y="13" width="1" height="2" fill="#393b47"/><rect x="17" y="15" width="2" height="2" fill="#393b47"/><rect x="7" y="4" width="1" height="1" fill="#FBC"/><rect x="16" y="4" width="1" height="1" fill="#FBC"/><rect x="8" y="8" width="1" height="2" fill="#000"/><rect x="3" y="9" width="3" height="1" fill="#000"/><rect x="9" y="9" width="1" height="1" fill="#000"/><rect x="18" y="9" width="3" height="1" fill="#000"/><rect x="3" y="11" width="3" height="1" fill="#000"/><rect x="10" y="11" width="1" height="1" fill="#000"/><rect x="13" y="11" width="1" height="1" fill="#000"/><rect x="18" y="11" width="3" height="1" fill="#000"/><rect x="11" y="12" width="2" height="1" fill="#000"/><rect x="9" y="8" width="1" height="1" fill="#FFF"/><rect x="15" y="8" width="1" height="1" fill="#FFF"/><rect x="14" y="8" width="1" height="2" fill="#0"/><rect x="15" y="9" width="1" height="1" fill="#0"/><rect x="11" y="10" width="2" height="1" fill="#F6B"/></svg>