<svg width="384" height="384" viewBox="0 0 24 24" xmlns="http://www.w3.org/2000/svg" shape-rendering="crispEdges"><rect x="0" y="0" width="24" height="1" fill="#87CEEB"/><rect x="0" y="1" width="3" height="1" fill="#87CEEB"/><rect x="5" y="1" width="19" height="1" fill="#87CEEB"/><rect x="0" y="2" width="2" height="1" fill="#87CEEB"/><rect x="6" y="2" width="18" height="1" fill="#87CEEB"/><rect x="0" y="3" width="1" height="13" fill="#87CEEB"/><rect x="7" y="3" width="5" height="1" fill="#87CEEB"/><rect x="14" y="3" width="10" height="1" fill="#87CEEB"/><rect x="1" y="4" width="1" height="11" fill="#87CEEB"/><rect x="6" y="4" width="5" height="1" fill="#87CEEB"/><rect x="15" y="4" width="9" height="1" fill="#87CEEB"/><rect x="2" y="5" width="8" height="4" fill="#87CEEB"/><rect x="16" y="5" width="8" height="1" fill="#87CEEB"/><rect x="10" y="6" width="1" height="18" fill="#87CEEB"/><rect x="15" y="6" width="4" height="1" fill="#87CEEB"/><rect x="21" y="6" width="3" height="1" fill="#87CEEB"/><rect x="11" y="7" width="7" height="1" fill="#87CEEB"/><rect x="22" y="7" width="2" height="1" fill="#87CEEB"/><rect x="11" y="8" width="6" height="4" fill="#87CEEB"/><rect x="23" y="8" width="1" height="16" fill="#87CEEB"/><rect x="2" y="9" width="4" height="1" fill="#87CEEB"/><rect x="8" y="9" width="2" height="1" fill="#87CEEB"/><rect x="17" y="9" width="1" height="4" fill="#87CEEB"/><rect x="22" y="9" width="1" height="15" fill="#87CEEB"/><rect x="2" y="10" width="3" height="1" fill="#87CEEB"/><rect x="9" y="10" width="1" height="1" fill="#87CEEB"/><rect x="18" y="10" width="4" height="4" fill="#87CEEB"/><rect x="2" y="11" width="2" height="3" fill="#87CEEB"/><rect x="4" y="12" width="1" height="3" fill="#87CEEB"/><rect x="9" y="12" width="1" height="12" fill="#87CEEB"/><rect x="11" y="12" width="4" height="1" fill="#87CEEB"/><rect x="5" y="13" width="4" height="3" fill="#87CEEB"/><rect x="11" y="13" width="3" height="1" fill="#87CEEB"/><rect x="11" y="14" width="2" height="10" fill="#87CEEB"/><rect x="19" y="14" width="3" height="4" fill="#87CEEB"/><rect x="13" y="15" width="1" height="9" fill="#87CEEB"/><rect x="18" y="15" width="1" height="3" fill="#87CEEB"/><rect x="6" y="16" width="3" height="8" fill="#87CEEB"/><rect x="14" y="16" width="4" height="3" fill="#87CEEB"/><rect x="0" y="17" width="1" height="7" fill="#87CEEB"/><rect x="5" y="17" width="1" height="7" fill="#87CEEB"/><rect x="1" y="18" width="4" height="6" fill="#87CEEB"/><rect x="20" y="18" width="2" height="1" fill="#87CEEB"/><rect x="14" y="19" width="3" height="1" fill="#87CEEB"/><rect x="21" y="19" width="1" height="1" fill="#87CEEB"/><rect x="14" y="20" width="2" height="4" fill="#87CEEB"/><rect x="16" y="21" width="1" height="3" fill="#87CEEB"/><rect x="21" y="21" width="1" height="3" fill="#87CEEB"/><rect x="17" y="22" width="4" height="2" fill="#87CEEB"/><rect x="3" y="1" width="2" height="1" fill="#FFF"/><rect x="2" y="2" width="1" height="1" fill="#FFF"/><rect x="1" y="3" width="1" height="1" fill="#FFF"/><rect x="12" y="3" width="2" height="1" fill="#FFF"/><rect x="11" y="4" width="2" height="1" fill="#FFF"/><rect x="10" y="5" width="2" height="1" fill="#FFF"/><rect x="19" y="6" width="2" height="1" fill="#FFF"/><rect x="18" y="7" width="1" height="1" fill="#FFF"/><rect x="17" y="8" width="1" height="1" fill="#FFF"/><rect x="6" y="9" width="2" height="1" fill="#FFF"/><rect x="5" y="10" width="1" height="1" fill="#FFF"/><rect x="4" y="11" width="1" height="1" fill="#FFF"/><rect x="15" y="12" width="2" height="1" fill="#FFF"/><rect x="14" y="13" width="1" height="1" fill="#FFF"/><rect x="2" y="14" width="2" height="1" fill="#FFF"/><rect x="13" y="14" width="1" height="1" fill="#FFF"/><rect x="1" y="15" width="1" height="1" fill="#FFF"/><rect x="0" y="16" width="1" height="1" fill="#FFF"/><rect x="18" y="18" width="2" height="1" fill="#FFF"/><rect x="17" y="19" width="1" height="1" fill="#FFF"/><rect x="16" y="20" width="1" height="1" fill="#FFF"/><rect x="3" y="2" width="2" height="2" fill="#fbf9f9"/><rect x="2" y="3" width="1" height="1" fill="#fbf9f9"/><rect x="5" y="3" width="1" height="1" fill="#fbf9f9"/><rect x="13" y="4" width="1" height="2" fill="#fbf9f9"/><rect x="12" y="5" width="1" height="1" fill="#fbf9f9"/><rect x="14" y="5" width="1" height="1" fill="#fbf9f9"/><rect x="19" y="7" width="2" height="2" fill="#fbf9f9"/><rect x="18" y="8" width="1" height="1" fill="#fbf9f9"/><rect x="21" y="8" width="1" height="1" fill="#fbf9f9"/><rect x="6" y="10" width="2" height="2" fill="#fbf9f9"/><rect x="5" y="11" width="1" height="1" fill="#fbf9f9"/><rect x="8" y="11" width="1" height="1" fill="#fbf9f9"/><rect x="15" y="13" width="2" height="2" fill="#fbf9f9"/><rect x="14" y="14" width="1" height="1" fill="#fbf9f9"/><rect x="17" y="14" width="1" height="1" fill="#fbf9f9"/><rect x="2" y="15" width="2" height="2" fill="#fbf9f9"/><rect x="1" y="16" width="1" height="1" fill="#fbf9f9"/><rect x="4" y="16" width="1" height="1" fill="#fbf9f9"/><rect x="18" y="19" width="2" height="2" fill="#fbf9f9"/><rect x="17" y="20" width="1" height="1" fill="#fbf9f9"/><rect x="20" y="20" width="1" height="1" fill="#fbf9f9"/><rect x="5" y="2" width="1" height="1" fill="#f5f0f0"/><rect x="6" y="3" width="1" height="1" fill="#efecec"/><rect x="2" y="4" width="4" height="1" fill="#efecec"/><rect x="14" y="4" width="1" height="1" fill="#efecec"/><rect x="15" y="5" width="1" height="1" fill="#efecec"/><rect x="11" y="6" width="4" height="1" fill="#efecec"/><rect x="21" y="7" width="1" height="1" fill="#efecec"/><rect x="22" y="8" width="1" height="1" fill="#efecec"/><rect x="18" y="9" width="4" height="1" fill="#efecec"/><rect x="8" y="10" width="1" height="1" fill="#efecec"/><rect x="9" y="11" width="1" height="1" fill="#efecec"/><rect x="5" y="12" width="4" height="1" fill="#efecec"/><rect x="17" y="13" width="1" height="1" fill="#efecec"/><rect x="18" y="14" width="1" height="1" fill="#efecec"/><rect x="4" y="15" width="1" height="1" fill="#efecec"/><rect x="14" y="15" width="4" height="1" fill="#efecec"/><rect x="5" y="16" width="1" height="1" fill="#efecec"/><rect x="1" y="17" width="4" height="1" fill="#efecec"/><rect x="20" y="19" width="1" height="1" fill="#efecec"/><rect x="21" y="20" width="1" height="1" fill="#efecec"/><rect x="17" y="21" width="4" height="1" fill="#efecec"/></svg>