<svg viewBox="0 0 24 24" xmlns="http://www.w3.org/2000/svg">
  <rect x="0" y="0" width="24" height="24" fill="#E0FFFF"/>
  <!-- Pixelated polka dot pattern -->
  <!-- Row 1 -->
  <rect x="1" y="1" width="2" height="2" fill="#00CED1"/>
  <rect x="7" y="1" width="2" height="2" fill="#00CED1"/>
  <rect x="13" y="1" width="2" height="2" fill="#00CED1"/>
  <rect x="19" y="1" width="2" height="2" fill="#00CED1"/>
  
  <!-- Row 2 -->
  <rect x="4" y="5" width="2" height="2" fill="#48D1CC"/>
  <rect x="10" y="5" width="2" height="2" fill="#48D1CC"/>
  <rect x="16" y="5" width="2" height="2" fill="#48D1CC"/>
  <rect x="22" y="5" width="2" height="2" fill="#48D1CC"/>
  
  <!-- Row 3 -->
  <rect x="1" y="9" width="2" height="2" fill="#00CED1"/>
  <rect x="7" y="9" width="2" height="2" fill="#00CED1"/>
  <rect x="13" y="9" width="2" height="2" fill="#00CED1"/>
  <rect x="19" y="9" width="2" height="2" fill="#00CED1"/>
  
  <!-- Row 4 -->
  <rect x="4" y="13" width="2" height="2" fill="#48D1CC"/>
  <rect x="10" y="13" width="2" height="2" fill="#48D1CC"/>
  <rect x="16" y="13" width="2" height="2" fill="#48D1CC"/>
  <rect x="22" y="13" width="2" height="2" fill="#48D1CC"/>
  
  <!-- Row 5 -->
  <rect x="1" y="17" width="2" height="2" fill="#00CED1"/>
  <rect x="7" y="17" width="2" height="2" fill="#00CED1"/>
  <rect x="13" y="17" width="2" height="2" fill="#00CED1"/>
  <rect x="19" y="17" width="2" height="2" fill="#00CED1"/>
  
  <!-- Row 6 -->
  <rect x="4" y="21" width="2" height="2" fill="#48D1CC"/>
  <rect x="10" y="21" width="2" height="2" fill="#48D1CC"/>
  <rect x="16" y="21" width="2" height="2" fill="#48D1CC"/>
  <rect x="22" y="21" width="2" height="2" fill="#48D1CC"/>
</svg>