<svg width="384" height="384" viewBox="0 0 24 24" xmlns="http://www.w3.org/2000/svg" shape-rendering="crispEdges"><rect x="0" y="0" width="3" height="1" fill="#bdcee4"/><rect x="6" y="0" width="5" height="1" fill="#bdcee4"/><rect x="13" y="0" width="5" height="1" fill="#bdcee4"/><rect x="21" y="0" width="3" height="1" fill="#bdcee4"/><rect x="0" y="1" width="1" height="2" fill="#bdcee4"/><rect x="8" y="1" width="1" height="2" fill="#bdcee4"/><rect x="15" y="1" width="1" height="2" fill="#bdcee4"/><rect x="23" y="1" width="1" height="2" fill="#bdcee4"/><rect x="0" y="10" width="1" height="5" fill="#bdcee4"/><rect x="8" y="10" width="1" height="5" fill="#bdcee4"/><rect x="15" y="10" width="1" height="5" fill="#bdcee4"/><rect x="23" y="10" width="1" height="5" fill="#bdcee4"/><rect x="1" y="12" width="2" height="1" fill="#bdcee4"/><rect x="6" y="12" width="2" height="1" fill="#bdcee4"/><rect x="9" y="12" width="2" height="1" fill="#bdcee4"/><rect x="13" y="12" width="2" height="1" fill="#bdcee4"/><rect x="16" y="12" width="2" height="1" fill="#bdcee4"/><rect x="21" y="12" width="2" height="1" fill="#bdcee4"/><rect x="0" y="21" width="1" height="3" fill="#bdcee4"/><rect x="8" y="21" width="1" height="3" fill="#bdcee4"/><rect x="15" y="21" width="1" height="3" fill="#bdcee4"/><rect x="23" y="21" width="1" height="3" fill="#bdcee4"/><rect x="1" y="23" width="2" height="1" fill="#bdcee4"/><rect x="6" y="23" width="2" height="1" fill="#bdcee4"/><rect x="9" y="23" width="2" height="1" fill="#bdcee4"/><rect x="13" y="23" width="2" height="1" fill="#bdcee4"/><rect x="16" y="23" width="2" height="1" fill="#bdcee4"/><rect x="21" y="23" width="2" height="1" fill="#bdcee4"/><rect x="3" y="0" width="3" height="4" fill="#f1f8ff"/><rect x="11" y="0" width="2" height="4" fill="#f1f8ff"/><rect x="18" y="0" width="3" height="4" fill="#f1f8ff"/><rect x="2" y="1" width="1" height="4" fill="#f1f8ff"/><rect x="6" y="1" width="1" height="5" fill="#f1f8ff"/><rect x="10" y="1" width="1" height="4" fill="#f1f8ff"/><rect x="13" y="1" width="1" height="4" fill="#f1f8ff"/><rect x="17" y="1" width="1" height="10" fill="#f1f8ff"/><rect x="21" y="1" width="1" height="4" fill="#f1f8ff"/><rect x="1" y="2" width="1" height="9" fill="#f1f8ff"/><rect x="7" y="2" width="1" height="8" fill="#f1f8ff"/><rect x="9" y="2" width="1" height="9" fill="#f1f8ff"/><rect x="14" y="2" width="1" height="4" fill="#f1f8ff"/><rect x="16" y="2" width="1" height="8" fill="#f1f8ff"/><rect x="22" y="2" width="1" height="4" fill="#f1f8ff"/><rect x="0" y="3" width="1" height="7" fill="#f1f8ff"/><rect x="8" y="3" width="1" height="7" fill="#f1f8ff"/><rect x="15" y="3" width="1" height="7" fill="#f1f8ff"/><rect x="23" y="3" width="1" height="7" fill="#f1f8ff"/><rect x="5" y="4" width="1" height="1" fill="#f1f8ff"/><rect x="18" y="4" width="2" height="1" fill="#f1f8ff"/><rect x="18" y="5" width="1" height="1" fill="#f1f8ff"/><rect x="2" y="7" width="1" height="5" fill="#f1f8ff"/><rect x="6" y="7" width="1" height="4" fill="#f1f8ff"/><rect x="10" y="7" width="1" height="5" fill="#f1f8ff"/><rect x="14" y="7" width="1" height="4" fill="#f1f8ff"/><rect x="18" y="7" width="1" height="10" fill="#f1f8ff"/><rect x="22" y="7" width="1" height="4" fill="#f1f8ff"/><rect x="3" y="8" width="1" height="8" fill="#f1f8ff"/><rect x="5" y="8" width="1" height="8" fill="#f1f8ff"/><rect x="11" y="8" width="1" height="8" fill="#f1f8ff"/><rect x="13" y="8" width="1" height="4" fill="#f1f8ff"/><rect x="19" y="8" width="1" height="8" fill="#f1f8ff"/><rect x="21" y="8" width="1" height="4" fill="#f1f8ff"/><rect x="4" y="9" width="1" height="6" fill="#f1f8ff"/><rect x="12" y="9" width="1" height="6" fill="#f1f8ff"/><rect x="20" y="9" width="1" height="6" fill="#f1f8ff"/><rect x="2" y="13" width="1" height="4" fill="#f1f8ff"/><rect x="6" y="13" width="1" height="4" fill="#f1f8ff"/><rect x="10" y="13" width="1" height="4" fill="#f1f8ff"/><rect x="13" y="13" width="1" height="3" fill="#f1f8ff"/><rect x="17" y="13" width="1" height="10" fill="#f1f8ff"/><rect x="21" y="13" width="1" height="3" fill="#f1f8ff"/><rect x="1" y="14" width="1" height="8" fill="#f1f8ff"/><rect x="7" y="14" width="1" height="8" fill="#f1f8ff"/><rect x="9" y="14" width="1" height="8" fill="#f1f8ff"/><rect x="14" y="14" width="1" height="3" fill="#f1f8ff"/><rect x="16" y="14" width="1" height="8" fill="#f1f8ff"/><rect x="22" y="14" width="1" height="3" fill="#f1f8ff"/><rect x="0" y="15" width="1" height="6" fill="#f1f8ff"/><rect x="8" y="15" width="1" height="6" fill="#f1f8ff"/><rect x="15" y="15" width="1" height="6" fill="#f1f8ff"/><rect x="23" y="15" width="1" height="6" fill="#f1f8ff"/><rect x="6" y="18" width="1" height="5" fill="#f1f8ff"/><rect x="10" y="18" width="1" height="5" fill="#f1f8ff"/><rect x="14" y="18" width="1" height="4" fill="#f1f8ff"/><rect x="18" y="18" width="1" height="6" fill="#f1f8ff"/><rect x="22" y="18" width="1" height="4" fill="#f1f8ff"/><rect x="2" y="19" width="1" height="4" fill="#f1f8ff"/><rect x="5" y="19" width="1" height="5" fill="#f1f8ff"/><rect x="13" y="19" width="1" height="4" fill="#f1f8ff"/><rect x="19" y="19" width="1" height="5" fill="#f1f8ff"/><rect x="21" y="19" width="1" height="4" fill="#f1f8ff"/><rect x="3" y="20" width="2" height="4" fill="#f1f8ff"/><rect x="11" y="20" width="2" height="4" fill="#f1f8ff"/><rect x="20" y="20" width="1" height="4" fill="#f1f8ff"/><rect x="1" y="1" width="1" height="1" fill="#dfe9f6"/><rect x="7" y="1" width="1" height="1" fill="#dfe9f6"/><rect x="9" y="1" width="1" height="1" fill="#dfe9f6"/><rect x="14" y="1" width="1" height="1" fill="#dfe9f6"/><rect x="16" y="1" width="1" height="1" fill="#dfe9f6"/><rect x="22" y="1" width="1" height="1" fill="#dfe9f6"/><rect x="1" y="11" width="1" height="1" fill="#dfe9f6"/><rect x="7" y="11" width="1" height="1" fill="#dfe9f6"/><rect x="9" y="11" width="1" height="1" fill="#dfe9f6"/><rect x="14" y="11" width="1" height="1" fill="#dfe9f6"/><rect x="22" y="11" width="1" height="1" fill="#dfe9f6"/><rect x="1" y="13" width="1" height="1" fill="#dfe9f6"/><rect x="7" y="13" width="1" height="1" fill="#dfe9f6"/><rect x="9" y="13" width="1" height="1" fill="#dfe9f6"/><rect x="14" y="13" width="1" height="1" fill="#dfe9f6"/><rect x="16" y="13" width="1" height="1" fill="#dfe9f6"/><rect x="22" y="13" width="1" height="1" fill="#dfe9f6"/><rect x="1" y="22" width="1" height="1" fill="#dfe9f6"/><rect x="7" y="22" width="1" height="1" fill="#dfe9f6"/><rect x="9" y="22" width="1" height="1" fill="#dfe9f6"/><rect x="14" y="22" width="1" height="1" fill="#dfe9f6"/><rect x="16" y="22" width="1" height="1" fill="#dfe9f6"/><rect x="22" y="22" width="1" height="1" fill="#dfe9f6"/><rect x="3" y="4" width="1" height="1" fill="#f1f6fe"/><rect x="2" y="5" width="1" height="1" fill="#f1f6fe"/><rect x="2" y="18" width="1" height="1" fill="#f1f6fe"/><rect x="4" y="4" width="1" height="5" fill="#e0aee3"/><rect x="12" y="4" width="1" height="5" fill="#e0aee3"/><rect x="20" y="4" width="1" height="5" fill="#e0aee3"/><rect x="2" y="6" width="2" height="1" fill="#e0aee3"/><rect x="5" y="6" width="2" height="1" fill="#e0aee3"/><rect x="10" y="6" width="2" height="1" fill="#e0aee3"/><rect x="13" y="6" width="2" height="1" fill="#e0aee3"/><rect x="18" y="6" width="2" height="1" fill="#e0aee3"/><rect x="21" y="6" width="2" height="1" fill="#e0aee3"/><rect x="4" y="15" width="1" height="1" fill="#e0aee3"/><rect x="12" y="15" width="1" height="5" fill="#e0aee3"/><rect x="20" y="15" width="1" height="5" fill="#e0aee3"/><rect x="2" y="17" width="5" height="1" fill="#e0aee3"/><rect x="10" y="17" width="2" height="1" fill="#e0aee3"/><rect x="13" y="17" width="2" height="1" fill="#e0aee3"/><rect x="18" y="17" width="2" height="1" fill="#e0aee3"/><rect x="21" y="17" width="2" height="1" fill="#e0aee3"/><rect x="4" y="19" width="1" height="1" fill="#e0aee3"/><rect x="11" y="4" width="1" height="1" fill="#eff0fc"/><rect x="11" y="19" width="1" height="1" fill="#eff0fc"/><rect x="3" y="5" width="1" height="1" fill="#eadbf4"/><rect x="5" y="5" width="1" height="1" fill="#eadbf4"/><rect x="11" y="5" width="1" height="1" fill="#eadbf4"/><rect x="13" y="5" width="1" height="1" fill="#eadbf4"/><rect x="19" y="5" width="1" height="1" fill="#eadbf4"/><rect x="21" y="5" width="1" height="1" fill="#eadbf4"/><rect x="3" y="7" width="1" height="1" fill="#eadbf4"/><rect x="5" y="7" width="1" height="1" fill="#eadbf4"/><rect x="11" y="7" width="1" height="1" fill="#eadbf4"/><rect x="13" y="7" width="1" height="1" fill="#eadbf4"/><rect x="19" y="7" width="1" height="1" fill="#eadbf4"/><rect x="21" y="7" width="1" height="1" fill="#eadbf4"/><rect x="3" y="16" width="1" height="1" fill="#eadbf4"/><rect x="5" y="16" width="1" height="1" fill="#eadbf4"/><rect x="11" y="16" width="1" height="1" fill="#eadbf4"/><rect x="13" y="16" width="1" height="1" fill="#eadbf4"/><rect x="19" y="16" width="1" height="1" fill="#eadbf4"/><rect x="21" y="16" width="1" height="1" fill="#eadbf4"/><rect x="3" y="18" width="1" height="1" fill="#eadbf4"/><rect x="5" y="18" width="1" height="1" fill="#eadbf4"/><rect x="11" y="18" width="1" height="1" fill="#eadbf4"/><rect x="13" y="18" width="1" height="1" fill="#eadbf4"/><rect x="19" y="18" width="1" height="1" fill="#eadbf4"/><rect x="21" y="18" width="1" height="1" fill="#eadbf4"/><rect x="10" y="5" width="1" height="1" fill="#f1f7ff"/><rect x="7" y="10" width="1" height="1" fill="#e8f1fa"/><rect x="16" y="10" width="1" height="1" fill="#f0f7ff"/><rect x="6" y="11" width="1" height="1" fill="#e9f1fb"/><rect x="17" y="11" width="1" height="1" fill="#e9f1fb"/><rect x="16" y="11" width="1" height="1" fill="#d1deef"/><rect x="4" y="16" width="1" height="1" fill="#e2b8e7"/><rect x="4" y="18" width="1" height="1" fill="#e1b0e4"/><rect x="3" y="19" width="1" height="1" fill="#f0f6fe"/></svg>