<svg viewBox="0 0 24 24" xmlns="http://www.w3.org/2000/svg"><g id="bg"><rect width="3" height="3" fill="#FFE4E1"/><rect x="3" width="3" height="3" fill="#E6E6FA"/><rect x="6" width="3" height="3" fill="#FFE4E1"/><rect x="9" width="3" height="3" fill="#E6E6FA"/><rect x="12" width="3" height="3" fill="#FFE4E1"/><rect x="15" width="3" height="3" fill="#E6E6FA"/><rect x="18" width="3" height="3" fill="#FFE4E1"/><rect x="21" width="3" height="3" fill="#E6E6FA"/><rect y="3" width="3" height="3" fill="#E6E6FA"/><rect x="3" y="3" width="3" height="3" fill="#FFE4E1"/><rect x="6" y="3" width="3" height="3" fill="#E6E6FA"/><rect x="9" y="3" width="3" height="3" fill="#FFE4E1"/><rect x="12" y="3" width="3" height="3" fill="#E6E6FA"/><rect x="15" y="3" width="3" height="3" fill="#FFE4E1"/><rect x="18" y="3" width="3" height="3" fill="#E6E6FA"/><rect x="21" y="3" width="3" height="3" fill="#FFE4E1"/><rect y="6" width="3" height="3" fill="#FFE4E1"/><rect x="3" y="6" width="3" height="3" fill="#E6E6FA"/><rect x="6" y="6" width="3" height="3" fill="#FFE4E1"/><rect x="9" y="6" width="3" height="3" fill="#E6E6FA"/><rect x="12" y="6" width="3" height="3" fill="#FFE4E1"/><rect x="15" y="6" width="3" height="3" fill="#E6E6FA"/><rect x="18" y="6" width="3" height="3" fill="#FFE4E1"/><rect x="21" y="6" width="3" height="3" fill="#E6E6FA"/><rect y="9" width="3" height="3" fill="#E6E6FA"/><rect x="3" y="9" width="3" height="3" fill="#FFE4E1"/><rect x="6" y="9" width="3" height="3" fill="#E6E6FA"/><rect x="9" y="9" width="3" height="3" fill="#FFE4E1"/><rect x="12" y="9" width="3" height="3" fill="#E6E6FA"/><rect x="15" y="9" width="3" height="3" fill="#FFE4E1"/><rect x="18" y="9" width="3" height="3" fill="#E6E6FA"/><rect x="21" y="9" width="3" height="3" fill="#FFE4E1"/><rect y="12" width="3" height="3" fill="#FFE4E1"/><rect x="3" y="12" width="3" height="3" fill="#E6E6FA"/><rect x="6" y="12" width="3" height="3" fill="#FFE4E1"/><rect x="9" y="12" width="3" height="3" fill="#E6E6FA"/><rect x="12" y="12" width="3" height="3" fill="#FFE4E1"/><rect x="15" y="12" width="3" height="3" fill="#E6E6FA"/><rect x="18" y="12" width="3" height="3" fill="#FFE4E1"/><rect x="21" y="12" width="3" height="3" fill="#E6E6FA"/><rect y="15" width="3" height="3" fill="#E6E6FA"/><rect x="3" y="15" width="3" height="3" fill="#FFE4E1"/><rect x="6" y="15" width="3" height="3" fill="#E6E6FA"/><rect x="9" y="15" width="3" height="3" fill="#FFE4E1"/><rect x="12" y="15" width="3" height="3" fill="#E6E6FA"/><rect x="15" y="15" width="3" height="3" fill="#FFE4E1"/><rect x="18" y="15" width="3" height="3" fill="#E6E6FA"/><rect x="21" y="15" width="3" height="3" fill="#FFE4E1"/><rect y="18" width="3" height="3" fill="#FFE4E1"/><rect x="3" y="18" width="3" height="3" fill="#E6E6FA"/><rect x="6" y="18" width="3" height="3" fill="#FFE4E1"/><rect x="9" y="18" width="3" height="3" fill="#E6E6FA"/><rect x="12" y="18" width="3" height="3" fill="#FFE4E1"/><rect x="15" y="18" width="3" height="3" fill="#E6E6FA"/><rect x="18" y="18" width="3" height="3" fill="#FFE4E1"/><rect x="21" y="18" width="3" height="3" fill="#E6E6FA"/><rect y="21" width="3" height="3" fill="#E6E6FA"/><rect x="3" y="21" width="3" height="3" fill="#FFE4E1"/><rect x="6" y="21" width="3" height="3" fill="#E6E6FA"/><rect x="9" y="21" width="3" height="3" fill="#FFE4E1"/><rect x="12" y="21" width="3" height="3" fill="#E6E6FA"/><rect x="15" y="21" width="3" height="3" fill="#FFE4E1"/><rect x="18" y="21" width="3" height="3" fill="#E6E6FA"/><rect x="21" y="21" width="3" height="3" fill="#FFE4E1"/></g></svg>