<svg viewBox="0 0 24 24" xmlns="http://www.w3.org/2000/svg" shape-rendering="crispEdges">
  <defs>
    <pattern id="houndstooth" patternUnits="userSpaceOnUse" width="12" height="12" x="0" y="0">
      <!-- Base pattern for houndstooth -->
      <rect x="0" y="0" width="2" height="1" fill="#DDA0DE"/>
      <rect x="6" y="0" width="1" height="1" fill="#DDA0DE"/>
      <rect x="0" y="1" width="1" height="1" fill="#DDA0DE"/>
      <rect x="3" y="3" width="1" height="1" fill="#DDA0DE"/>
      <rect x="9" y="3" width="1" height="1" fill="#DDA0DE"/>
      <rect x="0" y="6" width="1" height="1" fill="#DDA0DE"/>
      <rect x="6" y="6" width="1" height="1" fill="#DDA0DE"/>
      <rect x="3" y="9" width="1" height="1" fill="#DDA0DE"/>
      
      <rect x="2" y="0" width="1" height="1" fill="#E3BBE8"/>
      <rect x="1" y="1" width="1" height="1" fill="#E3BBE8"/>
      <rect x="0" y="2" width="1" height="1" fill="#E3BBE8"/>
      <rect x="5" y="3" width="1" height="1" fill="#E3BBE8"/>
      <rect x="3" y="5" width="1" height="1" fill="#E3BBE8"/>
      
      <rect x="3" y="0" width="3" height="2" fill="#E6E7FB"/>
      <rect x="9" y="0" width="3" height="2" fill="#E6E7FB"/>
      <rect x="5" y="2" width="1" height="1" fill="#E6E7FB"/>
      <rect x="0" y="3" width="3" height="3" fill="#E6E7FB"/>
      <rect x="6" y="3" width="3" height="3" fill="#E6E7FB"/>
      <rect x="3" y="6" width="3" height="3" fill="#E6E7FB"/>
      <rect x="9" y="6" width="3" height="3" fill="#E6E7FB"/>
      <rect x="0" y="9" width="2" height="3" fill="#E6E7FB"/>
      <rect x="6" y="9" width="3" height="3" fill="#E6E7FB"/>
      <rect x="2" y="11" width="1" height="1" fill="#E6E7FB"/>
      
      <rect x="7" y="0" width="1" height="1" fill="#DDA1DE"/>
      <rect x="0" y="7" width="1" height="1" fill="#DDA1DE"/>
      <rect x="9" y="9" width="1" height="2" fill="#DDA1DE"/>
      
      <rect x="8" y="0" width="1" height="1" fill="#E1BAE9"/>
      <rect x="0" y="8" width="1" height="1" fill="#E1BAE9"/>
      
      <rect x="9" y="5" width="1" height="1" fill="#F2DAF2"/>
      <rect x="8" y="6" width="1" height="1" fill="#F2DAF2"/>
      <rect x="7" y="7" width="1" height="1" fill="#F2DAF2"/>
      <rect x="6" y="8" width="1" height="1" fill="#F2DAF2"/>
      <rect x="5" y="9" width="1" height="1" fill="#F2DAF2"/>
      <rect x="3" y="11" width="1" height="1" fill="#F2DAF2"/>
      
      <rect x="6" y="1" width="1" height="1" fill="#DEA2DF"/>
      <rect x="1" y="6" width="1" height="1" fill="#DEA2DF"/>
      
      <rect x="7" y="1" width="1" height="1" fill="#E9C2EA"/>
      <rect x="1" y="7" width="1" height="1" fill="#E9C2EA"/>
      
      <rect x="8" y="1" width="1" height="1" fill="#F6F6FE"/>
      <rect x="8" y="7" width="1" height="1" fill="#F6F6FE"/>
      <rect x="1" y="8" width="1" height="1" fill="#F6F6FE"/>
      <rect x="7" y="8" width="1" height="1" fill="#F6F6FE"/>
      
      <rect x="11" y="4" width="1" height="1" fill="#FFF"/>
      <rect x="11" y="10" width="1" height="1" fill="#FFF"/>
      
      <rect x="2" y="2" width="1" height="1" fill="#FAF9FE"/>
      <rect x="3" y="2" width="2" height="1" fill="#E5E0F8"/>
      <rect x="9" y="2" width="2" height="1" fill="#E5E0F8"/>
      <rect x="2" y="9" width="1" height="2" fill="#E5E0F8"/>
      
      <rect x="6" y="2" width="1" height="1" fill="#E6BEE9"/>
      <rect x="2" y="6" width="1" height="1" fill="#E6BEE9"/>
      
      <rect x="11" y="2" width="1" height="1" fill="#E7E4FA"/>
      
      <rect x="4" y="3" width="1" height="1" fill="#DEA3DF"/>
      <rect x="3" y="4" width="1" height="1" fill="#DEA3DF"/>
      
      <rect x="10" y="3" width="1" height="1" fill="#DFA6E0"/>
      <rect x="3" y="10" width="1" height="1" fill="#DFA6E0"/>
      
      <rect x="11" y="3" width="1" height="1" fill="#F0D5F0"/>
      
      <rect x="4" y="4" width="1" height="1" fill="#E9C0E9"/>
      <rect x="5" y="4" width="1" height="1" fill="#F9F9FE"/>
      <rect x="4" y="5" width="1" height="1" fill="#F9F9FE"/>
      <rect x="10" y="5" width="2" height="1" fill="#F9F9FE"/>
      <rect x="5" y="10" width="1" height="1" fill="#F9F9FE"/>
      <rect x="4" y="11" width="1" height="1" fill="#F9F9FE"/>
      <rect x="10" y="11" width="2" height="1" fill="#F9F9FE"/>
      
      <rect x="9" y="4" width="1" height="1" fill="#E0A7E0"/>
      <rect x="4" y="9" width="1" height="1" fill="#E0A7E0"/>
      
      <rect x="10" y="4" width="1" height="1" fill="#EFD4F0"/>
      <rect x="4" y="10" width="1" height="1" fill="#EFD4F0"/>
      
      <rect x="7" y="6" width="1" height="1" fill="#E0A8E1"/>
      <rect x="6" y="7" width="1" height="1" fill="#E0A8E1"/>
      
      <rect x="8" y="8" width="1" height="1" fill="#EFE8F9"/>
      
      <rect x="10" y="9" width="1" height="1" fill="#E3B0E4"/>
      
      <rect x="9" y="11" width="1" height="1" fill="#EFDBF4"/>
      
      <rect x="5" y="11" width="1" height="1" fill="#F4F1FC"/>
    </pattern>
  </defs>
  
  <!-- Apply pattern to fill the entire canvas -->
  <rect width="24" height="24" fill="url(#houndstooth)"/>
</svg>
