<svg viewBox="0 0 24 24" xmlns="http://www.w3.org/2000/svg"><g id="bg"><rect width="24" height="24" fill="#C4A57B"/><rect width="2" height="24" fill="#8B6F47"/><rect x="4" width="2" height="24" fill="#8B6F47"/><rect x="8" width="2" height="24" fill="#8B6F47"/><rect x="12" width="2" height="24" fill="#8B6F47"/><rect x="16" width="2" height="24" fill="#8B6F47"/><rect x="20" width="2" height="24" fill="#8B6F47"/><rect width="24" height="2" fill="#8B6F47"/><rect y="4" width="24" height="2" fill="#8B6F47"/><rect y="8" width="24" height="2" fill="#8B6F47"/><rect y="12" width="24" height="2" fill="#8B6F47"/><rect y="16" width="24" height="2" fill="#8B6F47"/><rect y="20" width="24" height="2" fill="#8B6F47"/><rect width="2" height="2" fill="#3E2723"/><rect x="4" width="2" height="2" fill="#3E2723"/><rect x="8" width="2" height="2" fill="#3E2723"/><rect x="12" width="2" height="2" fill="#3E2723"/><rect x="16" width="2" height="2" fill="#3E2723"/><rect x="20" width="2" height="2" fill="#3E2723"/><rect y="4" width="2" height="2" fill="#3E2723"/><rect x="4" y="4" width="2" height="2" fill="#3E2723"/><rect x="8" y="4" width="2" height="2" fill="#3E2723"/><rect x="12" y="4" width="2" height="2" fill="#3E2723"/><rect x="16" y="4" width="2" height="2" fill="#3E2723"/><rect x="20" y="4" width="2" height="2" fill="#3E2723"/><rect y="8" width="2" height="2" fill="#3E2723"/><rect x="4" y="8" width="2" height="2" fill="#3E2723"/><rect x="8" y="8" width="2" height="2" fill="#3E2723"/><rect x="12" y="8" width="2" height="2" fill="#3E2723"/><rect x="16" y="8" width="2" height="2" fill="#3E2723"/><rect x="20" y="8" width="2" height="2" fill="#3E2723"/><rect y="12" width="2" height="2" fill="#3E2723"/><rect x="4" y="12" width="2" height="2" fill="#3E2723"/><rect x="8" y="12" width="2" height="2" fill="#3E2723"/><rect x="12" y="12" width="2" height="2" fill="#3E2723"/><rect x="16" y="12" width="2" height="2" fill="#3E2723"/><rect x="20" y="12" width="2" height="2" fill="#3E2723"/><rect y="16" width="2" height="2" fill="#3E2723"/><rect x="4" y="16" width="2" height="2" fill="#3E2723"/><rect x="8" y="16" width="2" height="2" fill="#3E2723"/><rect x="12" y="16" width="2" height="2" fill="#3E2723"/><rect x="16" y="16" width="2" height="2" fill="#3E2723"/><rect x="20" y="16" width="2" height="2" fill="#3E2723"/><rect y="20" width="2" height="2" fill="#3E2723"/><rect x="4" y="20" width="2" height="2" fill="#3E2723"/><rect x="8" y="20" width="2" height="2" fill="#3E2723"/><rect x="12" y="20" width="2" height="2" fill="#3E2723"/><rect x="16" y="20" width="2" height="2" fill="#3E2723"/><rect x="20" y="20" width="2" height="2" fill="#3E2723"/></g></svg>